<?xml version="1.0" encoding="iso-8859-1"?>
<!-- Generator: Adobe Illustrator 19.0.0, SVG Export Plug-In . SVG Version: 6.00 Build 0)  -->
<svg version="1.1" id="Layer_1" xmlns="http://www.w3.org/2000/svg" xmlns:xlink="http://www.w3.org/1999/xlink" x="0px" y="0px"
	 viewBox="0 0 512 512" style="enable-background:new 0 0 512 512;" xml:space="preserve">
<g>
	<polygon style="fill:#D4E4AC;" points="185.631,348.423 185.631,284.614 233.749,284.614 233.749,412.232 217.847,412.232 
		201.862,348.423 	"/>
	<polyline style="fill:#D4E4AC;" points="345.677,477.088 345.677,189.423 393.796,189.423 393.796,477.088 	"/>
</g>
<g>
	<polyline style="fill:#E2804F;" points="425.177,477.088 425.177,141.304 473.296,141.304 473.296,477.088 	"/>
	<polygon style="fill:#E2804F;" points="313.25,477.088 313.25,244.864 266.177,244.864 266.177,412.232 281.785,412.232 
		297.93,477.088 	"/>
</g>
<g>
	<rect x="265.803" y="245.091" style="fill:#FFFFFF;" width="47.953" height="23.977"/>
	<rect x="345.721" y="189.148" style="fill:#FFFFFF;" width="47.953" height="47.953"/>
	<rect x="425.65" y="141.197" style="fill:#FFFFFF;" width="47.953" height="119.888"/>
</g>
<g>
	<polygon style="fill:#F2BF7E;" points="225.839,408.747 89.971,408.747 105.956,344.809 209.855,344.809 	"/>
	<polygon style="fill:#F2BF7E;" points="145.917,472.685 10.048,472.685 26.033,408.747 129.933,408.747 	"/>
	<polygon style="fill:#F2BF7E;" points="296.956,472.685 161.088,472.685 177.072,408.747 280.972,408.747 	"/>
</g>
<path d="M288.071,400.901h-56.105l-15.985-63.938H99.83l-15.985,63.938H19.907L0,480.531h307.978L288.071,400.901z M112.081,352.653
	h91.648l12.062,48.247H100.02L112.081,352.653z M20.097,464.841l12.062-48.248h91.648l12.062,48.248H20.097z M153.989,472.626
	l-14.009-56.034h28.016L153.989,472.626z M172.11,464.841l12.062-48.248h91.649l12.062,48.248H172.11z"/>
<polygon points="512,480.226 313.25,480.226 313.25,464.535 496.309,464.535 496.309,31.468 512,31.468 "/>
<polygon style="fill:#E2804F;" points="399.026,37.745 399.026,53.436 410.209,53.436 337.731,125.916 317.751,105.934 
	188.323,235.361 199.418,246.457 317.751,128.124 337.731,148.105 422.039,63.798 422.039,76.449 437.73,76.449 437.73,37.745 "/>
<g>
	<rect x="42.321" y="430.012" style="fill:#FFFFFF;" width="31.382" height="15.691"/>
	<rect x="90.442" y="430.012" style="fill:#FFFFFF;" width="15.691" height="15.691"/>
	<rect x="194.001" y="430.012" style="fill:#FFFFFF;" width="31.382" height="15.691"/>
	<rect x="242.12" y="430.012" style="fill:#FFFFFF;" width="15.691" height="15.691"/>
	<rect x="121.824" y="366.203" style="fill:#FFFFFF;" width="32.428" height="15.691"/>
	<rect x="169.942" y="366.203" style="fill:#FFFFFF;" width="15.691" height="15.691"/>
</g>
<path d="M416.809,133.982v326.369H432.5V269.969h32.428v190.382h15.691V133.982L416.809,133.982L416.809,133.982z M432.5,254.278
	V149.673h32.428v104.605H432.5z"/>
<path d="M337.309,182.1v278.251H353V245.91h31.382v214.441h15.691V182.1L337.309,182.1L337.309,182.1z M353,230.219v-32.428h31.382
	v32.428H353z"/>
<path d="M256.763,238.587v157.954h15.691v-119.25h32.428v183.06h15.691V238.587L256.763,238.587L256.763,238.587z M272.453,261.601
	v-7.322h32.428v7.322H272.453z"/>
<rect x="185.874" y="285.05" style="fill:#FFFFFF;" width="47.953" height="31.97"/>
<path d="M177.262,278.337v54.395h15.691v-7.322h32.428v42.888h15.691v-89.961H177.262z M192.953,309.719v-15.691h32.428v15.691
	H192.953z"/>
<g>
</g>
<g>
</g>
<g>
</g>
<g>
</g>
<g>
</g>
<g>
</g>
<g>
</g>
<g>
</g>
<g>
</g>
<g>
</g>
<g>
</g>
<g>
</g>
<g>
</g>
<g>
</g>
<g>
</g>
</svg>
